<?xml version="1.0" encoding="utf-8"?>
<!-- Generator: Adobe Illustrator 19.2.1, SVG Export Plug-In . SVG Version: 6.00 Build 0)  -->
<svg version="1.1" id="Ebene_1" xmlns="http://www.w3.org/2000/svg" xmlns:xlink="http://www.w3.org/1999/xlink" x="0px" y="0px"
	 viewBox="0 0 1537.5 629.9" style="enable-background:new 0 0 1537.5 629.9;" xml:space="preserve">
<style type="text/css">
	.st0{fill:#E23467;}
</style>
<title>Element 1</title>
<g id="Ebene_2">
	<g id="Ebene_1-2">
		<path class="st0" d="M355.4,180.5c-14.7,0-27-4.9-37.6-17.2c22.1-13.1,36.8-43.3,36.8-70.3c0-28.6-15.5-54.7-60.5-54.7
			s-75.2,25.3-75.2,74.3c0,120.1,183.8,136.4,183.8,312.9c0,137.3-111.1,204.2-229.6,204.2C80.1,629.9,0,589,0,489.3
			c0-88.2,62.9-134,120.1-134c28.6,0,69.4,11.4,71.9,53.9c-44.1,0-95.6,20.4-95.6,76.8c0,40.9,26.1,78.4,78.4,78.4
			c54.7,0,94.8-40,94.8-108.7c0-139.7-167.5-189.5-167.5-309.6C102.1,61.3,185.4,0,290.8,0c38.4,0,131.5,8.2,131.5,98
			C422.4,145.4,396.2,180.5,355.4,180.5z"/>
		<path class="st0" d="M870,40.8L776.1,482c-2.1,8.6-3.2,17.3-3.3,26.1c0,22.9,10.6,30.2,33.5,30.2c31.9,0,53.9-31,66.2-71.9h34.3
			c-46.6,133.2-120.1,146.2-164.2,146.2s-73.5-24.5-80.1-70.3c-24.5,37.5-62.9,75.2-120.9,75.2c-55.6,0-108.6-34.3-108.6-131.5
			c0-110.3,67.8-285.9,210-285.9c46.6,0,66.2,18,66.2,41.7v3.3l40-187.9L870,40.8z M661.7,466.5l40-187.1c-1.6-9.8-9-28.6-33.5-28.6
			c-69.4,0-114.4,147.1-114.4,223.8c0,62.9,26.1,63.7,40.8,63.7C617.6,538.4,651.1,511.4,661.7,466.5L661.7,466.5z"/>
		<path class="st0" d="M1247.5,204.2L1188.7,482c-2.1,8.6-3.2,17.3-3.3,26.1c0,22.9,10.6,30.2,33.5,30.2c31.9,0,53.9-31,66.2-71.9
			h34.3c-46.6,133.2-120.1,151.1-164.2,151.1c-46.6,0-76-27-80.9-77.6c-40.8,67-86.6,77.6-120.9,77.6c-49,0-87.4-29.4-87.4-98
			c0-15.5,2.5-33.5,6.5-53.1L928,204.2h117.6L986.9,482c-1.6,7.5-2.4,15.2-2.5,22.9c0,18.8,6.5,33.5,24.5,33.5
			c31.9,0,53.1-31,65.4-71.9l55.6-262.2L1247.5,204.2z"/>
		<path class="st0" d="M1458.2,204.2L1399.4,482c-2.1,8.6-3.2,17.3-3.3,26.1c0,22.9,10.6,30.2,33.5,30.2c31.9,0,61.3-31,73.5-71.9
			h34.3c-46.6,133.2-127.5,151.1-171.6,151.1c-49,0-87.4-29.4-87.4-98c0-15.5,2.4-33.5,6.5-53.1l55.6-262.2L1458.2,204.2z
			 M1421.5,30.2c36.1,0.1,65.3,29.3,65.4,65.4c0,35.9-29.4,64.5-65.4,64.5c-35.4,0.2-64.3-28.3-64.5-63.8c0-0.3,0-0.5,0-0.8
			C1356.9,59.6,1385.5,30.2,1421.5,30.2L1421.5,30.2z"/>
	</g>
</g>
</svg>
